<svg width="100%" height="100%" id="svg" viewBox="0 0 1440 500" xmlns="http://www.w3.org/2000/svg" class="transition duration-300 ease-in-out delay-150"><defs><linearGradient id="gradient" x1="0%" y1="50%" x2="100%" y2="50%"><stop offset="5%" stop-color="#002bdc"></stop><stop offset="95%" stop-color="#8ed1fc"></stop></linearGradient></defs><path d="M 0,500 C 0,500 0,125 0,125 C 95.39285714285714,154.39285714285714 190.78571428571428,183.78571428571428 310,169 C 429.2142857142857,154.21428571428572 572.25,95.24999999999997 690,93 C 807.75,90.75000000000003 900.2142857142858,145.21428571428575 1021,160 C 1141.7857142857142,174.78571428571425 1290.892857142857,149.8928571428571 1440,125 C 1440,125 1440,500 1440,500 Z" stroke="none" stroke-width="0" fill="url(#gradient)" fill-opacity="0.4" class="transition-all duration-300 ease-in-out delay-150 path-0"></path><defs><linearGradient id="gradient" x1="0%" y1="50%" x2="100%" y2="50%"><stop offset="5%" stop-color="#002bdc"></stop><stop offset="95%" stop-color="#8ed1fc"></stop></linearGradient></defs><path d="M 0,500 C 0,500 0,250 0,250 C 115.35714285714286,254.60714285714286 230.71428571428572,259.2142857142857 355,243 C 479.2857142857143,226.78571428571428 612.5000000000001,189.74999999999997 729,203 C 845.4999999999999,216.25000000000003 945.2857142857142,279.78571428571433 1061,296 C 1176.7142857142858,312.21428571428567 1308.357142857143,281.10714285714283 1440,250 C 1440,250 1440,500 1440,500 Z" stroke="none" stroke-width="0" fill="url(#gradient)" fill-opacity="0.53" class="transition-all duration-300 ease-in-out delay-150 path-1"></path><defs><linearGradient id="gradient" x1="0%" y1="50%" x2="100%" y2="50%"><stop offset="5%" stop-color="#002bdc"></stop><stop offset="95%" stop-color="#8ed1fc"></stop></linearGradient></defs><path d="M 0,500 C 0,500 0,375 0,375 C 135.42857142857142,366.3928571428571 270.85714285714283,357.7857142857143 390,362 C 509.14285714285717,366.2142857142857 612.0000000000001,383.25000000000006 715,384 C 817.9999999999999,384.74999999999994 921.1428571428571,369.21428571428567 1042,365 C 1162.857142857143,360.78571428571433 1301.4285714285716,367.89285714285717 1440,375 C 1440,375 1440,500 1440,500 Z" stroke="none" stroke-width="0" fill="url(#gradient)" fill-opacity="1" class="transition-all duration-300 ease-in-out delay-150 path-2"></path></svg>