<?xml version="1.0" standalone="no"?><!DOCTYPE svg PUBLIC "-//W3C//DTD SVG 1.1//EN" "http://www.w3.org/Graphics/SVG/1.1/DTD/svg11.dtd"><svg t="1669817008017" class="icon" viewBox="0 0 1024 1024" version="1.1" xmlns="http://www.w3.org/2000/svg" p-id="1276" xmlns:xlink="http://www.w3.org/1999/xlink" width="200" height="200"><path d="M664.1664 98.7136H362.8544c-128.4608 0-232.96 104.4992-232.96 232.96v355.5328c0 128.4608 104.4992 232.96 232.96 232.96h301.312c128.4608 0 232.96-104.4992 232.96-232.96V331.6736c0-128.4608-104.4992-232.96-232.96-232.96z m161.28 588.4928c0 88.9344-72.3456 161.28-161.28 161.28H362.8544c-88.9344 0-161.28-72.3456-161.28-161.28V331.6736c0-88.9344 72.3456-161.28 161.28-161.28h301.312c88.9344 0 161.28 72.3456 161.28 161.28v355.5328z" fill="#34332E" p-id="1277"></path><path d="M689.3568 361.0624H341.5552c-19.8144 0-35.84 16.0256-35.84 35.84s16.0256 35.84 35.84 35.84h347.8016c19.8144 0 35.84-16.0256 35.84-35.84s-16.0768-35.84-35.84-35.84zM575.9488 571.8016H341.5552c-19.8144 0-35.84 16.0256-35.84 35.84s16.0256 35.84 35.84 35.84h234.3936c19.8144 0 35.84-16.0256 35.84-35.84s-16.0256-35.84-35.84-35.84z" fill="#34332E" p-id="1278"></path></svg>