<svg t="1670846084491" class="icon" viewBox="0 0 1024 1024" version="1.1" xmlns="http://www.w3.org/2000/svg" p-id="2684" width="200" height="200"><path d="M720 288H320v80h400v-80z m-48-144H368v80h304V144z m164.688 80H752.16l120.384 352H600c-3.824 32-4.688 94.448-80.544 94.448-63.264 0-74.416-50.576-75.952-60.448L438.912 576H166.4l120.384-352H202.24L80 580.816V912h880V580.816L836.688 224zM880 832H160V656h213.632c47.872 128 243.68 128 291.648 0H880v176zM272 512h496v-80H272v80z" fill="#565D64" p-id="2685"></path></svg>