<?xml version="1.0" standalone="no"?><!DOCTYPE svg PUBLIC "-//W3C//DTD SVG 1.1//EN" "http://www.w3.org/Graphics/SVG/1.1/DTD/svg11.dtd"><svg t="1669797818067" class="icon" viewBox="0 0 1024 1024" version="1.1" xmlns="http://www.w3.org/2000/svg" p-id="1605" xmlns:xlink="http://www.w3.org/1999/xlink" width="200" height="200"><path d="M264.145455 149.876364c65.396364 0 138.705455 21.178182 212.014545 60.974545 10.938182 6.050909 23.505455 9.076364 36.072727 9.076364s24.901818-3.258182 36.072728-9.076364c73.309091-39.796364 146.618182-60.974545 212.014545-60.974545 40.261818 0 97.047273 8.610909 138.007273 49.570909 85.643636 85.643636 57.018182 272.523636-66.56 435.2-19.781818 26.065455-41.890909 51.432727-65.629091 75.170909-75.869091 75.869091-165.701818 132.887273-253.672727 161.512727-88.203636-28.625455-177.803636-85.643636-253.672728-161.512727a737.885091 737.885091 0 0 1-65.861818-75.403637c-123.810909-162.676364-152.436364-349.556364-67.025454-435.2 41.192727-40.96 97.745455-49.338182 138.24-49.338181m495.941818-69.818182c-76.334545 0-161.745455 23.970909-245.294546 69.352727-0.930909 0.465455-1.861818 0.698182-2.792727 0.698182s-1.861818-0.232727-2.56-0.698182c-83.781818-45.614545-168.96-69.352727-245.294545-69.352727-74.24 0-139.869091 22.574545-187.345455 70.050909-114.501818 114.501818-84.48 336.058182 60.509091 526.429091a815.476364 815.476364 0 0 0 71.912727 82.618182c90.298182 90.298182 193.861818 152.203636 292.770909 181.992727 3.258182 0.930909 6.749091 1.629091 10.24 1.629091 3.490909 0 6.981818-0.465455 10.24-1.629091 98.909091-29.789091 202.472727-91.927273 292.770909-181.992727 26.530909-26.530909 50.501818-53.992727 71.912728-82.385455 144.756364-190.603636 174.778182-412.16 60.276363-526.661818-47.476364-47.476364-113.105455-70.283636-187.345454-70.050909z" p-id="1606"></path></svg>