<?xml version="1.0" standalone="no"?><!DOCTYPE svg PUBLIC "-//W3C//DTD SVG 1.1//EN" "http://www.w3.org/Graphics/SVG/1.1/DTD/svg11.dtd"><svg t="1670814602648" class="icon" viewBox="0 0 1024 1024" version="1.1" xmlns="http://www.w3.org/2000/svg" p-id="1585" xmlns:xlink="http://www.w3.org/1999/xlink" width="200" height="200"><path d="M904 792c4.416 0 8 3.584 8 8v56a8 8 0 0 1-8 8H120a8 8 0 0 1-8-8V800c0-4.416 3.584-8 8-8z m-16-209.984c4.416 0 8 3.584 8 8v56a8 8 0 0 1-8 8h-480a8 8 0 0 1-8-8v-56c0-4.416 3.584-8 8-8z m-616.32-200a8.832 8.832 0 0 1 14.4 6.912v246.144c0 7.424-8.576 11.52-14.4 6.912L115.392 518.912a8.768 8.768 0 0 1 0-13.824z m616.32-12.032c4.416 0 8 3.648 8 8v56a8 8 0 0 1-8 8h-480a8 8 0 0 1-8-8v-56c0-4.352 3.584-8 8-8z m16-209.984c4.416 0 8 3.584 8 8V224a8 8 0 0 1-8 8H120A8 8 0 0 1 112 224v-56c0-4.416 3.584-8 8-8z" p-id="1586" fill="#0434d1"></path></svg>