<?xml version="1.0" standalone="no"?><!DOCTYPE svg PUBLIC "-//W3C//DTD SVG 1.1//EN" "http://www.w3.org/Graphics/SVG/1.1/DTD/svg11.dtd"><svg t="1670814525711" class="icon" viewBox="0 0 1024 1024" version="1.1" xmlns="http://www.w3.org/2000/svg" p-id="887" width="200" height="200" xmlns:xlink="http://www.w3.org/1999/xlink"><path d="M120 792a8 8 0 0 0-8 8v56c0 4.416 3.584 8 8 8h784a8 8 0 0 0 8-8V800a8 8 0 0 0-8-8z m16-209.984A8 8 0 0 0 128 590.016v56c0 4.416 3.584 8 8 8h480a8 8 0 0 0 8-8v-56a8 8 0 0 0-8-8z m616.32-200a8.832 8.832 0 0 0-14.4 6.912v246.144c0 7.424 8.576 11.52 14.4 6.912l156.288-123.072a8.768 8.768 0 0 0 0-13.824z m-616.32-12.032A8 8 0 0 0 128 377.984v56c0 4.416 3.584 8 8 8h480a8 8 0 0 0 8-8v-56a8 8 0 0 0-8-8zM120 160a8 8 0 0 0-8 8V224c0 4.416 3.584 8 8 8h784a8 8 0 0 0 8-8v-56a8 8 0 0 0-8-8z" p-id="888" fill="#0434d1" data-spm-anchor-id="a313x.7781069.0.i1" class="selected"></path></svg>