<?xml version="1.0" standalone="no"?><!DOCTYPE svg PUBLIC "-//W3C//DTD SVG 1.1//EN" "http://www.w3.org/Graphics/SVG/1.1/DTD/svg11.dtd"><svg t="1669817220664" class="icon" viewBox="0 0 1028 1024" version="1.1" xmlns="http://www.w3.org/2000/svg" p-id="23701" xmlns:xlink="http://www.w3.org/1999/xlink" width="200.78125" height="200"><path d="M516.065243 1024C217.075062 1024-22.526657 768.015257 6.143634 462.881443 30.718169 198.705188 260.080499-4.034729 526.304632 0.061027c92.154508 2.047878 178.165381 26.622413 255.984744 73.723606 26.622413 16.383024 32.766047 51.196949 12.287267 75.771484-16.383024 20.478779-45.053315 26.622413-67.579972 12.287268-61.436338-36.861803-129.016311-57.340583-200.692039-59.388461-212.979306-4.095756-399.3362 159.73448-417.767101 372.713786C88.058752 716.818308 278.511401 921.606103 516.065243 921.606103c225.266574 0 409.575589-184.309015 409.575589-409.57559 0-57.340583-12.287268-114.681165-34.813925-165.878113-10.23939-24.574535-2.047878-53.244827 20.478779-65.532095 26.622413-14.335146 59.38846-4.095756 71.675728 22.526658 28.670291 65.532094 45.053315 137.207822 45.053315 208.88355 0 282.607157-229.36233 511.969487-511.969486 511.969487z" fill="#303030" p-id="23702"></path><path d="M516.065243 577.562608c-28.670291 0-51.196949-22.526657-51.196949-51.196949V315.434231c0-28.670291 22.526657-51.196949 51.196949-51.196949s51.196949 22.526657 51.196948 51.196949v210.931428c0 28.670291-22.526657 51.196949-51.196948 51.196949z" fill="#303030" p-id="23703"></path><path d="M516.065243 735.24921m-55.292705 0a55.292705 55.292705 0 1 0 110.585409 0 55.292705 55.292705 0 1 0-110.585409 0Z" fill="#303030" p-id="23704"></path></svg>