<?xml version="1.0" standalone="no"?><!DOCTYPE svg PUBLIC "-//W3C//DTD SVG 1.1//EN" "http://www.w3.org/Graphics/SVG/1.1/DTD/svg11.dtd"><svg t="1669858730509" class="icon" viewBox="0 0 1024 1024" version="1.1" xmlns="http://www.w3.org/2000/svg" p-id="1276" xmlns:xlink="http://www.w3.org/1999/xlink" width="200" height="200"><path d="M858.3168 588.6976c-19.8144 0-35.84 16.0256-35.84 35.84v82.944c0 71.7312-58.368 130.048-130.048 130.048H331.8784c-71.7312 0-130.048-58.368-130.048-130.048V312.6272c0-71.7312 58.368-130.048 130.048-130.048h65.536c19.8144 0 35.84-16.0256 35.84-35.84s-16.0256-35.84-35.84-35.84h-65.536c-111.2576 0-201.728 90.5216-201.728 201.728v394.9056c0 111.2576 90.5216 201.728 201.728 201.728h360.5504c111.2576 0 201.728-90.5216 201.728-201.728v-82.944c0-19.8656-16.0768-35.8912-35.84-35.8912z" fill="#ffffff" p-id="1277"></path><path d="M543.9488 507.4432c9.3696 0 18.7392-3.6352 25.7536-10.9056l242.4832-250.88v116.48c0 19.8144 16.0256 35.84 35.84 35.84s35.84-16.0256 35.84-35.84v-158.72c0-48.1792-39.2192-87.3984-87.3984-87.3984H649.728c-19.8144 0-35.84 16.0256-35.84 35.84s16.0256 35.84 35.84 35.84h118.8352l-250.368 259.072c-13.7728 14.2336-13.3632 36.9152 0.8704 50.688a35.91168 35.91168 0 0 0 24.8832 9.984z" fill="#ffffff" p-id="1278"></path></svg>