<?xml version="1.0" standalone="no"?><!DOCTYPE svg PUBLIC "-//W3C//DTD SVG 1.1//EN" "http://www.w3.org/Graphics/SVG/1.1/DTD/svg11.dtd"><svg t="1669819224288" class="icon" viewBox="0 0 1024 1024" version="1.1" xmlns="http://www.w3.org/2000/svg" p-id="2029" xmlns:xlink="http://www.w3.org/1999/xlink" width="200" height="200"><path d="M719.0528 105.1136H305.3056c-108.1344 0-196.1472 88.0128-196.1472 196.1472v413.7472c0 108.1344 87.9616 196.1472 196.1472 196.1472h413.7472c108.1344 0 196.1472-88.0128 196.1472-196.1472V301.2608c0-108.1344-88.0128-196.1472-196.1472-196.1472z m124.4672 609.8944c0 68.608-55.8592 124.4672-124.4672 124.4672H305.3056c-68.608 0-124.4672-55.808-124.4672-124.4672V301.2608c0-68.608 55.808-124.4672 124.4672-124.4672h413.7472c68.608 0 124.4672 55.808 124.4672 124.4672v413.7472z" fill="#ffffff" p-id="2030"></path><path d="M645.0688 648.8576H389.5296c-19.8144 0-35.84 16.0256-35.84 35.84s16.0256 35.84 35.84 35.84H645.12c19.8144 0 35.84-16.0256 35.84-35.84s-16.0768-35.84-35.8912-35.84zM491.52 588.6464a36.11136 36.11136 0 0 0 25.344 10.9568h0.4096c9.4208 0 18.4832-3.6864 25.1904-10.3424l127.7952-126.1568c14.08-13.9264 14.2336-36.608 0.3072-50.688s-36.608-14.2336-50.688-0.3072l-66.7648 65.8944V318.6688c0-19.8144-16.0256-35.84-35.84-35.84s-35.84 16.0256-35.84 35.84v156.416L421.1712 412.7232c-13.7728-14.2336-36.4544-14.6432-50.688-0.8704-14.2336 13.7728-14.6432 36.4544-0.8704 50.688L491.52 588.6464z" fill="#ffffff" p-id="2031"></path></svg>