<?xml version="1.0" standalone="no"?><!DOCTYPE svg PUBLIC "-//W3C//DTD SVG 1.1//EN" "http://www.w3.org/Graphics/SVG/1.1/DTD/svg11.dtd"><svg t="1669816545328" class="icon" viewBox="0 0 1024 1024" version="1.1" xmlns="http://www.w3.org/2000/svg" p-id="1435" xmlns:xlink="http://www.w3.org/1999/xlink" width="200" height="200"><path d="M914.1248 754.0736a249.90208 249.90208 0 0 0 23.296-112.1792c-1.9968-77.5168-41.216-151.04-104.9088-196.5568-0.9728-0.6656-1.9456-1.28-2.9184-1.8944-7.424-85.5552-44.1344-164.7616-105.8816-226.56-72.3968-72.3968-168.8064-110.4896-271.2064-107.2128-193.8944 6.144-349.6448 162.8672-354.6624 356.8128-1.536 59.392 11.3152 118.272 37.2736 171.2128-14.3872 53.4528-30.208 106.5984-41.3696 142.9504a67.1232 67.1232 0 0 0 16.4352 66.9696c12.8512 13.0048 30.1056 20.0192 47.8208 20.0192 6.3488 0 12.7488-0.8704 18.9952-2.7648l156.5696-46.0288c43.9808 16.8448 90.2656 24.832 138.0352 23.9616 18.2784-0.3584 36.352-2.0992 54.1696-5.12 43.9808 37.7856 99.7376 59.1872 157.2864 60.2624 30.9248 0.5632 61.1328-4.352 89.856-14.7968l79.5648 23.3984c6.144 1.792 12.4416 2.7136 18.6368 2.7136 17.3056 0 34.2016-6.8096 46.7968-19.5072 17.0496-17.2032 23.3472-42.2912 16.384-65.4848-7.5776-25.088-14.336-48.6912-20.1728-70.1952z m-443.904 17.1008c-41.9328 0.8704-82.5856-7.0144-120.832-23.1936a35.82464 35.82464 0 0 0-24.1152-1.3824l-160.6656 47.2064c12.1344-39.7312 28.7232-95.8464 43.264-151.04 2.304-8.8064 1.1776-18.176-3.1232-26.2144-24.4736-45.1584-36.6592-96.3584-35.328-148.1728 4.0448-156.0064 129.3312-282.0608 285.2864-287.0272 82.5856-2.6624 160 28.0064 218.2656 86.272 58.2656 58.2656 88.8832 135.7312 86.272 218.2656-4.9664 156.9792-131.9424 282.3168-289.024 285.2864z m374.2208-38.0928a35.67616 35.67616 0 0 0-3.1232 26.2144c6.0416 22.9376 13.2096 48.2816 21.2992 75.5712l-81.3056-23.9104a35.84 35.84 0 0 0-24.1152 1.3824c-23.04 9.7792-47.5648 14.4896-72.8576 13.9776-24.1152-0.4608-47.8208-5.9904-69.632-15.9232a368.3072 368.3072 0 0 0 106.9056-73.5744c55.6032-54.8864 91.648-124.5696 104.2944-199.8848 24.3712 30.208 38.7584 67.7888 39.7824 106.8032a177.2032 177.2032 0 0 1-21.248 89.344z" fill="#34332E" p-id="1436"></path><path d="M331.1616 398.8992c-19.8144 0-35.84 16.0256-35.84 35.84v42.1376c0 19.8144 16.0256 35.84 35.84 35.84s35.84-16.0256 35.84-35.84v-42.1376c0-19.7632-16.0256-35.84-35.84-35.84zM569.7536 398.8992c-19.8144 0-35.84 16.0256-35.84 35.84v42.1376c0 19.8144 16.0256 35.84 35.84 35.84s35.84-16.0256 35.84-35.84v-42.1376c0-19.7632-16.0256-35.84-35.84-35.84z" fill="#34332E" p-id="1437"></path></svg>