<?xml version="1.0" standalone="no"?><!DOCTYPE svg PUBLIC "-//W3C//DTD SVG 1.1//EN" "http://www.w3.org/Graphics/SVG/1.1/DTD/svg11.dtd"><svg t="1669817048518" class="icon" viewBox="0 0 1024 1024" version="1.1" xmlns="http://www.w3.org/2000/svg" p-id="1437" xmlns:xlink="http://www.w3.org/1999/xlink" width="200" height="200"><path d="M832.6656 471.7568V247.7568c0-69.5296-56.576-126.1056-126.1056-126.1056H320.768c-69.5296 0-126.1056 56.576-126.1056 126.1056v224c-51.712 10.7008-90.7264 56.6272-90.7264 111.4624v196.608c0 62.7712 51.0464 113.8176 113.8176 113.8176h591.7696c62.7712 0 113.8176-51.0464 113.8176-113.8176v-196.608c0-54.8352-38.9632-100.7616-90.6752-111.4624zM320.768 193.3824H706.56c30.0032 0 54.4256 24.4224 54.4256 54.4256v221.6448h-69.7344c-27.6992 0-52.9408 14.9504-65.9968 38.9632-22.2208 41.0112-65.024 66.5088-111.5648 66.5088s-89.3952-25.5488-111.616-66.5088c-13.056-24.064-38.3488-38.9632-65.9968-38.9632H266.3424v-221.696c0-30.0032 24.4224-54.3744 54.4256-54.3744z m530.8928 586.4448c0 23.2448-18.8928 42.1376-42.1376 42.1376H217.7536c-23.2448 0-42.1376-18.8928-42.1376-42.1376v-196.608c0-23.2448 18.8928-42.1376 42.1376-42.1376h118.3232c1.28 0 2.5088 0.6144 2.9696 1.4848 34.816 64.1536 101.6832 103.9872 174.592 103.9872s139.776-39.8336 174.592-103.9872c0.4608-0.8704 1.6896-1.4848 2.9696-1.4848h118.3232c23.2448 0 42.1376 18.8928 42.1376 42.1376v196.608z" fill="#34332E" p-id="1438"></path><path d="M419.5328 331.9296h189.5424c19.8144 0 35.84-16.0256 35.84-35.84s-16.0256-35.84-35.84-35.84H419.5328c-19.8144 0-35.84 16.0256-35.84 35.84s16.0256 35.84 35.84 35.84z" fill="#34332E" p-id="1439"></path></svg>